<?xml version="1.0" encoding="UTF-8"?>
<!DOCTYPE svg PUBLIC "-//W3C//DTD SVG 1.1//EN" "http://www.w3.org/Graphics/SVG/1.1/DTD/svg11.dtd">
<svg xmlns="http://www.w3.org/2000/svg" version="1.1" width="500px" height="500px" style="shape-rendering:geometricPrecision; text-rendering:geometricPrecision; image-rendering:optimizeQuality; fill-rule:evenodd; clip-rule:evenodd" xmlns:xlink="http://www.w3.org/1999/xlink">
<g><path style="opacity:1" fill="#fefefe" d="M -0.5,-0.5 C 166.167,-0.5 332.833,-0.5 499.5,-0.5C 499.5,166.167 499.5,332.833 499.5,499.5C 332.833,499.5 166.167,499.5 -0.5,499.5C -0.5,332.833 -0.5,166.167 -0.5,-0.5 Z"/></g>
<g><path style="opacity:1" fill="#757575" d="M 295.5,114.5 C 295.5,115.833 295.5,117.167 295.5,118.5C 327.004,118.168 358.338,118.502 389.5,119.5C 382.833,119.5 376.167,119.5 369.5,119.5C 359.5,119.5 349.5,119.5 339.5,119.5C 325.167,119.5 310.833,119.5 296.5,119.5C 296.5,132.167 296.5,144.833 296.5,157.5C 296.802,160.059 296.468,162.393 295.5,164.5C 293.958,165.301 292.292,165.634 290.5,165.5C 288.774,163.18 288.107,160.513 288.5,157.5C 288.667,145.162 288.5,132.829 288,120.5C 283.934,119.536 279.767,119.203 275.5,119.5C 254.164,119.333 232.831,119.5 211.5,120C 210.511,132.42 210.178,144.92 210.5,157.5C 210.893,160.513 210.226,163.18 208.5,165.5C 206.708,165.634 205.042,165.301 203.5,164.5C 202.532,162.393 202.198,160.059 202.5,157.5C 202.5,144.833 202.5,132.167 202.5,119.5C 197.5,119.5 192.5,119.5 187.5,119.5C 175.5,119.5 163.5,119.5 151.5,119.5C 137.5,119.5 123.5,119.5 109.5,119.5C 140.662,118.502 171.996,118.168 203.5,118.5C 203.5,117.167 203.5,115.833 203.5,114.5C 214.284,86.9394 234.284,75.7727 263.5,81C 279.257,87.3818 289.924,98.5485 295.5,114.5 Z"/></g>
<g><path style="opacity:1" fill="#fdfdfd" d="M 285.5,113.5 C 261.5,114.833 237.5,114.833 213.5,113.5C 225.452,88.5698 244.119,81.7364 269.5,93C 277.123,98.0958 282.456,104.929 285.5,113.5 Z"/></g>
<g><path style="opacity:1" fill="#c4c4c4" d="M 203.5,114.5 C 203.5,115.833 203.5,117.167 203.5,118.5C 171.996,118.168 140.662,118.502 109.5,119.5C 107.589,119.574 106.422,120.574 106,122.5C 105.168,181.668 105.335,240.668 106.5,299.5C 107.058,300.79 108.058,301.623 109.5,302C 203.001,302.832 296.334,302.666 389.5,301.5C 391.027,301.573 392.027,300.906 392.5,299.5C 393.665,240.335 393.832,181.001 393,121.5C 392.184,120.177 391.017,119.511 389.5,119.5C 358.338,118.502 327.004,118.168 295.5,118.5C 295.5,117.167 295.5,115.833 295.5,114.5C 330.073,114.171 364.573,114.504 399,115.5C 399.667,180.833 399.667,246.167 399,311.5C 398.5,312 398,312.5 397.5,313C 357.501,313.5 317.501,313.667 277.5,313.5C 277.5,317.167 277.5,320.833 277.5,324.5C 277.167,324.5 276.833,324.5 276.5,324.5C 276.5,320.833 276.5,317.167 276.5,313.5C 258.5,313.5 240.5,313.5 222.5,313.5C 182.337,312.501 142.003,312.168 101.5,312.5C 100.778,312.082 100.278,311.416 100,310.5C 99.3333,245.833 99.3333,181.167 100,116.5C 100.5,116 101,115.5 101.5,115C 135.498,114.5 169.498,114.333 203.5,114.5 Z"/></g>
<g><path style="opacity:1" fill="#c3c3c3" d="M 213.5,113.5 C 237.5,114.833 261.5,114.833 285.5,113.5C 286.451,114.919 286.784,116.585 286.5,118.5C 261.833,118.5 237.167,118.5 212.5,118.5C 212.216,116.585 212.549,114.919 213.5,113.5 Z"/></g>
<g><path style="opacity:1" fill="#545454" d="M 109.5,119.5 C 123.5,119.5 137.5,119.5 151.5,119.5C 150.909,122.614 149.242,125.114 146.5,127C 146.833,127.333 147.167,127.667 147.5,128C 142.559,132.267 138.392,137.1 135,142.5C 129.701,149.831 123.368,156.831 116,163.5C 114.969,166.539 113.135,169.039 110.5,171C 110.833,171.333 111.167,171.667 111.5,172C 110,173.5 108.5,175 107,176.5C 106.5,190.496 106.333,204.496 106.5,218.5C 106.5,230.5 106.5,242.5 106.5,254.5C 106.5,266.5 106.5,278.5 106.5,290.5C 106.5,293.5 106.5,296.5 106.5,299.5C 105.335,240.668 105.168,181.668 106,122.5C 106.422,120.574 107.589,119.574 109.5,119.5 Z"/></g>
<g><path style="opacity:1" fill="#4d4d4d" d="M 151.5,119.5 C 163.5,119.5 175.5,119.5 187.5,119.5C 182.598,124.231 178.265,129.398 174.5,135C 174.833,135.333 175.167,135.667 175.5,136C 170.559,140.267 166.392,145.1 163,150.5C 160.167,153.333 157.333,156.167 154.5,159C 154.833,159.333 155.167,159.667 155.5,160C 149.066,165.761 143.399,172.094 138.5,179C 138.833,179.333 139.167,179.667 139.5,180C 131.465,187.607 124.465,195.274 118.5,203C 118.833,203.333 119.167,203.667 119.5,204C 114.534,208.455 110.2,213.289 106.5,218.5C 106.333,204.496 106.5,190.496 107,176.5C 108.5,175 110,173.5 111.5,172C 111.167,171.667 110.833,171.333 110.5,171C 113.135,169.039 114.969,166.539 116,163.5C 123.368,156.831 129.701,149.831 135,142.5C 138.392,137.1 142.559,132.267 147.5,128C 147.167,127.667 146.833,127.333 146.5,127C 149.242,125.114 150.909,122.614 151.5,119.5 Z"/></g>
<g><path style="opacity:1" fill="#474747" d="M 187.5,119.5 C 192.5,119.5 197.5,119.5 202.5,119.5C 202.5,132.167 202.5,144.833 202.5,157.5C 202.167,157.5 201.833,157.5 201.5,157.5C 201.666,151.158 201.5,144.825 201,138.5C 196.603,144.904 191.436,150.738 185.5,156C 185.833,156.333 186.167,156.667 186.5,157C 181.806,161.161 177.806,165.827 174.5,171C 174.833,171.333 175.167,171.667 175.5,172C 167.736,179.091 160.736,186.758 154.5,195C 154.833,195.333 155.167,195.667 155.5,196C 150.559,200.267 146.392,205.1 143,210.5C 140.167,213.333 137.333,216.167 134.5,219C 134.833,219.333 135.167,219.667 135.5,220C 131.833,223.667 128.167,227.333 124.5,231C 124.833,231.333 125.167,231.667 125.5,232C 123.167,234.333 120.833,236.667 118.5,239C 118.833,239.333 119.167,239.667 119.5,240C 114.534,244.455 110.2,249.289 106.5,254.5C 106.5,242.5 106.5,230.5 106.5,218.5C 110.2,213.289 114.534,208.455 119.5,204C 119.167,203.667 118.833,203.333 118.5,203C 124.465,195.274 131.465,187.607 139.5,180C 139.167,179.667 138.833,179.333 138.5,179C 143.399,172.094 149.066,165.761 155.5,160C 155.167,159.667 154.833,159.333 154.5,159C 157.333,156.167 160.167,153.333 163,150.5C 166.392,145.1 170.559,140.267 175.5,136C 175.167,135.667 174.833,135.333 174.5,135C 178.265,129.398 182.598,124.231 187.5,119.5 Z"/></g>
<g><path style="opacity:1" fill="#3d3d3d" d="M 275.5,119.5 C 272.943,123.617 269.943,127.451 266.5,131C 266.833,131.333 267.167,131.667 267.5,132C 258.996,139.886 251.996,148.386 246.5,157.5C 234.5,157.5 222.5,157.5 210.5,157.5C 210.178,144.92 210.511,132.42 211.5,120C 232.831,119.5 254.164,119.333 275.5,119.5 Z"/></g>
<g><path style="opacity:1" fill="#353535" d="M 275.5,119.5 C 279.767,119.203 283.934,119.536 288,120.5C 288.5,132.829 288.667,145.162 288.5,157.5C 274.5,157.5 260.5,157.5 246.5,157.5C 251.996,148.386 258.996,139.886 267.5,132C 267.167,131.667 266.833,131.333 266.5,131C 269.943,127.451 272.943,123.617 275.5,119.5 Z"/></g>
<g><path style="opacity:1" fill="#2f2f2f" d="M 339.5,119.5 C 336.943,123.617 333.943,127.451 330.5,131C 330.833,131.333 331.167,131.667 331.5,132C 326.559,136.267 322.392,141.1 319,146.5C 314.211,150.385 310.711,154.718 308.5,159.5C 304.658,157.998 300.658,157.332 296.5,157.5C 296.5,144.833 296.5,132.167 296.5,119.5C 310.833,119.5 325.167,119.5 339.5,119.5 Z"/></g>
<g><path style="opacity:1" fill="#282828" d="M 339.5,119.5 C 349.5,119.5 359.5,119.5 369.5,119.5C 366.27,125.287 361.77,130.62 356,135.5C 351.178,144.387 344.511,152.387 336,159.5C 334.969,162.539 333.135,165.039 330.5,167C 330.833,167.333 331.167,167.667 331.5,168C 328.631,171.038 325.631,173.871 322.5,176.5C 319.961,169.094 315.295,163.427 308.5,159.5C 310.711,154.718 314.211,150.385 319,146.5C 322.392,141.1 326.559,136.267 331.5,132C 331.167,131.667 330.833,131.333 330.5,131C 333.943,127.451 336.943,123.617 339.5,119.5 Z"/></g>
<g><path style="opacity:1" fill="#222222" d="M 369.5,119.5 C 376.167,119.5 382.833,119.5 389.5,119.5C 391.017,119.511 392.184,120.177 393,121.5C 393.832,181.001 393.665,240.335 392.5,299.5C 392.5,268.167 392.5,236.833 392.5,205.5C 392.5,193.5 392.5,181.5 392.5,169.5C 392.667,155.496 392.5,141.496 392,127.5C 386.562,135.98 380.062,143.814 372.5,151C 372.833,151.333 373.167,151.667 373.5,152C 371.167,154.333 368.833,156.667 366.5,159C 366.833,159.333 367.167,159.667 367.5,160C 356.729,172.074 346.229,183.907 336,195.5C 334.969,198.539 333.135,201.039 330.5,203C 330.833,203.333 331.167,203.667 331.5,204C 328.631,207.038 325.631,209.871 322.5,212.5C 322.5,200.5 322.5,188.5 322.5,176.5C 325.631,173.871 328.631,171.038 331.5,168C 331.167,167.667 330.833,167.333 330.5,167C 333.135,165.039 334.969,162.539 336,159.5C 344.511,152.387 351.178,144.387 356,135.5C 361.77,130.62 366.27,125.287 369.5,119.5 Z"/></g>
<g><path style="opacity:1" fill="#1c1c1c" d="M 392.5,169.5 C 368.885,198.066 345.552,226.399 322.5,254.5C 322.5,240.5 322.5,226.5 322.5,212.5C 325.631,209.871 328.631,207.038 331.5,204C 331.167,203.667 330.833,203.333 330.5,203C 333.135,201.039 334.969,198.539 336,195.5C 346.229,183.907 356.729,172.074 367.5,160C 367.167,159.667 366.833,159.333 366.5,159C 368.833,156.667 371.167,154.333 373.5,152C 373.167,151.667 372.833,151.333 372.5,151C 380.062,143.814 386.562,135.98 392,127.5C 392.5,141.496 392.667,155.496 392.5,169.5 Z"/></g>
<g><path style="opacity:1" fill="#f8b857" d="M 201.5,157.5 C 201.833,157.5 202.167,157.5 202.5,157.5C 202.198,160.059 202.532,162.393 203.5,164.5C 201.5,165.167 199.5,165.833 197.5,166.5C 191.246,168.253 187.079,172.253 185,178.5C 184.5,201.164 184.333,223.831 184.5,246.5C 182.929,251.397 182.429,256.397 183,261.5C 184.045,262.373 184.878,263.373 185.5,264.5C 185.139,270.593 185.639,276.593 187,282.5C 189.956,287.061 194.123,289.728 199.5,290.5C 220.167,290.5 240.833,290.5 261.5,290.5C 274.837,290.667 288.171,290.5 301.5,290C 308.421,288.58 312.421,284.413 313.5,277.5C 314.833,244.5 314.833,211.5 313.5,178.5C 311.829,172.163 307.829,168.163 301.5,166.5C 299.5,165.833 297.5,165.167 295.5,164.5C 296.468,162.393 296.802,160.059 296.5,157.5C 300.658,157.332 304.658,157.998 308.5,159.5C 315.295,163.427 319.961,169.094 322.5,176.5C 322.5,188.5 322.5,200.5 322.5,212.5C 322.5,226.5 322.5,240.5 322.5,254.5C 322.666,263.173 322.5,271.84 322,280.5C 319.148,290.521 312.648,296.521 302.5,298.5C 265.105,298.981 227.772,298.481 190.5,297C 184.18,294.014 180.013,289.181 178,282.5C 176.573,268.893 176.073,255.226 176.5,241.5C 176.5,229.5 176.5,217.5 176.5,205.5C 176.334,195.828 176.5,186.161 177,176.5C 180.684,164.31 188.85,157.976 201.5,157.5 Z"/></g>
<g><path style="opacity:1" fill="#febc59" d="M 210.5,157.5 C 222.5,157.5 234.5,157.5 246.5,157.5C 260.5,157.5 274.5,157.5 288.5,157.5C 288.107,160.513 288.774,163.18 290.5,165.5C 263.167,165.5 235.833,165.5 208.5,165.5C 210.226,163.18 210.893,160.513 210.5,157.5 Z"/></g>
<g><path style="opacity:1" fill="#9b7a47" d="M 203.5,164.5 C 205.042,165.301 206.708,165.634 208.5,165.5C 235.833,165.5 263.167,165.5 290.5,165.5C 292.292,165.634 293.958,165.301 295.5,164.5C 297.5,165.167 299.5,165.833 301.5,166.5C 291.167,166.5 280.833,166.5 270.5,166.5C 259.167,166.5 247.833,166.5 236.5,166.5C 223.5,166.5 210.5,166.5 197.5,166.5C 199.5,165.833 201.5,165.167 203.5,164.5 Z"/></g>
<g><path style="opacity:1" fill="#3f3d3c" d="M 197.5,166.5 C 210.5,166.5 223.5,166.5 236.5,166.5C 235.528,169.986 233.528,172.819 230.5,175C 230.833,175.333 231.167,175.667 231.5,176C 223.736,183.091 216.736,190.758 210.5,199C 210.833,199.333 211.167,199.667 211.5,200C 209.294,202.037 207.294,204.203 205.5,206.5C 202.196,208.973 199.362,211.973 197,215.5C 192.119,225.665 187.952,235.998 184.5,246.5C 184.333,223.831 184.5,201.164 185,178.5C 187.079,172.253 191.246,168.253 197.5,166.5 Z"/></g>
<g><path style="opacity:1" fill="#363434" d="M 236.5,166.5 C 247.833,166.5 259.167,166.5 270.5,166.5C 269.402,167.397 269.402,168.23 270.5,169C 265.397,175.94 259.73,182.44 253.5,188.5C 240.551,187.724 231.051,193.057 225,204.5C 220.954,218.862 224.787,230.528 236.5,239.5C 233.058,247.379 229.392,255.046 225.5,262.5C 225.167,262.5 224.833,262.5 224.5,262.5C 223.404,248.259 220.904,234.259 217,220.5C 215.384,215.221 212.551,210.721 208.5,207C 207.552,206.517 206.552,206.351 205.5,206.5C 207.294,204.203 209.294,202.037 211.5,200C 211.167,199.667 210.833,199.333 210.5,199C 216.736,190.758 223.736,183.091 231.5,176C 231.167,175.667 230.833,175.333 230.5,175C 233.528,172.819 235.528,169.986 236.5,166.5 Z"/></g>
<g><path style="opacity:1" fill="#414141" d="M 201.5,157.5 C 188.85,157.976 180.684,164.31 177,176.5C 176.5,186.161 176.334,195.828 176.5,205.5C 173.239,210.303 169.072,214.97 164,219.5C 163.74,221.618 162.74,223.284 161,224.5C 159.245,226.255 157.079,228.421 154.5,231C 154.833,231.333 155.167,231.667 155.5,232C 149.066,237.761 143.399,244.094 138.5,251C 138.833,251.333 139.167,251.667 139.5,252C 131.456,260.319 124.456,267.985 118.5,275C 118.833,275.333 119.167,275.667 119.5,276C 114.534,280.455 110.2,285.289 106.5,290.5C 106.5,278.5 106.5,266.5 106.5,254.5C 110.2,249.289 114.534,244.455 119.5,240C 119.167,239.667 118.833,239.333 118.5,239C 120.833,236.667 123.167,234.333 125.5,232C 125.167,231.667 124.833,231.333 124.5,231C 128.167,227.333 131.833,223.667 135.5,220C 135.167,219.667 134.833,219.333 134.5,219C 137.333,216.167 140.167,213.333 143,210.5C 146.392,205.1 150.559,200.267 155.5,196C 155.167,195.667 154.833,195.333 154.5,195C 160.736,186.758 167.736,179.091 175.5,172C 175.167,171.667 174.833,171.333 174.5,171C 177.806,165.827 181.806,161.161 186.5,157C 186.167,156.667 185.833,156.333 185.5,156C 191.436,150.738 196.603,144.904 201,138.5C 201.5,144.825 201.666,151.158 201.5,157.5 Z"/></g>
<g><path style="opacity:1" fill="#2a2928" d="M 270.5,166.5 C 280.833,166.5 291.167,166.5 301.5,166.5C 307.829,168.163 311.829,172.163 313.5,178.5C 313.831,201.006 313.497,223.34 312.5,245.5C 312.262,241.862 310.596,239.029 307.5,237C 302.418,234.256 297.418,231.423 292.5,228.5C 291.425,225.562 291.259,222.562 292,219.5C 296.017,214.407 301.184,212.574 307.5,214C 308.745,218.346 310.078,218.179 311.5,213.5C 311.124,211.617 310.124,210.117 308.5,209C 296.731,205.136 287.897,208.636 282,219.5C 281.503,221.81 281.337,224.143 281.5,226.5C 277.465,232.045 272.798,237.212 267.5,242C 267.833,242.333 268.167,242.667 268.5,243C 266.759,244.083 266.093,245.25 266.5,246.5C 264.941,244.392 263.608,242.059 262.5,239.5C 276.059,229.128 279.226,216.128 272,200.5C 267.361,194.1 261.195,190.1 253.5,188.5C 259.73,182.44 265.397,175.94 270.5,169C 269.402,168.23 269.402,167.397 270.5,166.5 Z"/></g>
<g><path style="opacity:1" fill="#161515" d="M 392.5,169.5 C 392.5,181.5 392.5,193.5 392.5,205.5C 390.704,206.793 389.037,208.293 387.5,210C 387.833,210.333 388.167,210.667 388.5,211C 382.264,219.242 375.264,226.909 367.5,234C 367.833,234.333 368.167,234.667 368.5,235C 363.601,241.906 357.934,248.239 351.5,254C 346.619,262.14 339.952,270.14 331.5,278C 331.833,278.333 332.167,278.667 332.5,279C 326.932,286.574 320.599,293.574 313.5,300C 314.056,300.383 314.389,300.883 314.5,301.5C 293.167,301.5 271.833,301.5 250.5,301.5C 250.611,300.883 250.944,300.383 251.5,300C 268.672,299.832 285.672,299.332 302.5,298.5C 312.648,296.521 319.148,290.521 322,280.5C 322.5,271.84 322.666,263.173 322.5,254.5C 345.552,226.399 368.885,198.066 392.5,169.5 Z"/></g>
<g><path style="opacity:1" fill="#f2ad32" d="M 253.5,188.5 C 261.195,190.1 267.361,194.1 272,200.5C 279.226,216.128 276.059,229.128 262.5,239.5C 263.608,242.059 264.941,244.392 266.5,246.5C 268.676,252.358 271.009,258.191 273.5,264C 272.899,265.605 271.899,266.938 270.5,268C 256.5,268.667 242.5,268.667 228.5,268C 226.329,266.826 225.329,264.993 225.5,262.5C 229.392,255.046 233.058,247.379 236.5,239.5C 224.787,230.528 220.954,218.862 225,204.5C 231.051,193.057 240.551,187.724 253.5,188.5 Z"/></g>
<g><path style="opacity:1" fill="#2f2e2d" d="M 261.5,258.5 C 253.35,259.493 245.017,259.826 236.5,259.5C 240.097,251.971 243.43,244.304 246.5,236.5C 246.471,234.971 245.804,233.804 244.5,233C 234.489,228.815 230.322,221.315 232,210.5C 238.785,195.684 248.952,192.851 262.5,202C 271.271,215.344 268.604,225.677 254.5,233C 253.196,233.804 252.529,234.971 252.5,236.5C 255.51,243.85 258.51,251.183 261.5,258.5 Z"/></g>
<g><path style="opacity:1" fill="#414141" d="M 176.5,205.5 C 176.5,217.5 176.5,229.5 176.5,241.5C 172.064,247.469 166.73,253.303 160.5,259C 160.833,259.333 161.167,259.667 161.5,260C 159.167,262.333 156.833,264.667 154.5,267C 154.833,267.333 155.167,267.667 155.5,268C 147.736,275.091 140.736,282.758 134.5,291C 134.833,291.333 135.167,291.667 135.5,292C 132.5,295 129.5,298 126.5,301C 167.832,301.5 209.165,301.667 250.5,301.5C 271.833,301.5 293.167,301.5 314.5,301.5C 339.5,301.5 364.5,301.5 389.5,301.5C 296.334,302.666 203.001,302.832 109.5,302C 108.058,301.623 107.058,300.79 106.5,299.5C 106.5,296.5 106.5,293.5 106.5,290.5C 110.2,285.289 114.534,280.455 119.5,276C 119.167,275.667 118.833,275.333 118.5,275C 124.456,267.985 131.456,260.319 139.5,252C 139.167,251.667 138.833,251.333 138.5,251C 143.399,244.094 149.066,237.761 155.5,232C 155.167,231.667 154.833,231.333 154.5,231C 157.079,228.421 159.245,226.255 161,224.5C 162.74,223.284 163.74,221.618 164,219.5C 169.072,214.97 173.239,210.303 176.5,205.5 Z"/></g>
<g><path style="opacity:1" fill="#f53231" d="M 205.5,206.5 C 206.552,206.351 207.552,206.517 208.5,207C 212.551,210.721 215.384,215.221 217,220.5C 220.904,234.259 223.404,248.259 224.5,262.5C 223.414,262.38 222.747,261.713 222.5,260.5C 221.212,254.096 219.712,247.763 218,241.5C 217.586,241.043 217.086,240.709 216.5,240.5C 210.355,243.312 204.022,244.146 197.5,243C 195.261,249.447 193.094,255.947 191,262.5C 189.556,264.155 187.722,264.822 185.5,264.5C 184.878,263.373 184.045,262.373 183,261.5C 182.429,256.397 182.929,251.397 184.5,246.5C 187.952,235.998 192.119,225.665 197,215.5C 199.362,211.973 202.196,208.973 205.5,206.5 Z"/></g>
<g><path style="opacity:1" fill="#f53030" d="M 312.5,245.5 C 312.5,247.833 312.5,250.167 312.5,252.5C 305.539,263.307 296.206,265.974 284.5,260.5C 282.681,259.064 282.348,257.397 283.5,255.5C 291.844,259.209 299.01,257.542 305,250.5C 306.183,246.726 305.349,243.559 302.5,241C 296.933,239.217 291.599,236.883 286.5,234C 284.177,231.83 282.51,229.33 281.5,226.5C 281.337,224.143 281.503,221.81 282,219.5C 287.897,208.636 296.731,205.136 308.5,209C 310.124,210.117 311.124,211.617 311.5,213.5C 310.078,218.179 308.745,218.346 307.5,214C 301.184,212.574 296.017,214.407 292,219.5C 291.259,222.562 291.425,225.562 292.5,228.5C 297.418,231.423 302.418,234.256 307.5,237C 310.596,239.029 312.262,241.862 312.5,245.5 Z"/></g>
<g><path style="opacity:1" fill="#0e0e0e" d="M 392.5,205.5 C 392.5,236.833 392.5,268.167 392.5,299.5C 392.027,300.906 391.027,301.573 389.5,301.5C 364.5,301.5 339.5,301.5 314.5,301.5C 314.389,300.883 314.056,300.383 313.5,300C 320.599,293.574 326.932,286.574 332.5,279C 332.167,278.667 331.833,278.333 331.5,278C 339.952,270.14 346.619,262.14 351.5,254C 357.934,248.239 363.601,241.906 368.5,235C 368.167,234.667 367.833,234.333 367.5,234C 375.264,226.909 382.264,219.242 388.5,211C 388.167,210.667 387.833,210.333 387.5,210C 389.037,208.293 390.704,206.793 392.5,205.5 Z"/></g>
<g><path style="opacity:1" fill="#3b3434" d="M 206.5,213.5 C 207.496,213.414 208.329,213.748 209,214.5C 212.891,221.339 215.058,228.672 215.5,236.5C 210.146,236.569 204.813,236.902 199.5,237.5C 201.43,229.377 203.763,221.377 206.5,213.5 Z"/></g>
<g><path style="opacity:1" fill="#242323" d="M 281.5,226.5 C 282.51,229.33 284.177,231.83 286.5,234C 291.599,236.883 296.933,239.217 302.5,241C 305.349,243.559 306.183,246.726 305,250.5C 299.01,257.542 291.844,259.209 283.5,255.5C 282.348,257.397 282.681,259.064 284.5,260.5C 282.629,260.859 281.129,261.859 280,263.5C 278.969,266.539 277.135,269.039 274.5,271C 274.833,271.333 275.167,271.667 275.5,272C 269.73,277.096 264.73,282.763 260.5,289C 261.056,289.383 261.389,289.883 261.5,290.5C 240.833,290.5 220.167,290.5 199.5,290.5C 204.759,284.882 209.759,279.048 214.5,273C 214.167,272.667 213.833,272.333 213.5,272C 217.03,267.916 220.697,264.75 224.5,262.5C 224.833,262.5 225.167,262.5 225.5,262.5C 225.329,264.993 226.329,266.826 228.5,268C 242.5,268.667 256.5,268.667 270.5,268C 271.899,266.938 272.899,265.605 273.5,264C 271.009,258.191 268.676,252.358 266.5,246.5C 266.093,245.25 266.759,244.083 268.5,243C 268.167,242.667 267.833,242.333 267.5,242C 272.798,237.212 277.465,232.045 281.5,226.5 Z"/></g>
<g><path style="opacity:1" fill="#815f35" d="M 313.5,178.5 C 314.833,211.5 314.833,244.5 313.5,277.5C 313.826,268.983 313.493,260.65 312.5,252.5C 312.5,250.167 312.5,247.833 312.5,245.5C 313.497,223.34 313.831,201.006 313.5,178.5 Z"/></g>
<g><path style="opacity:1" fill="#343333" d="M 176.5,241.5 C 176.073,255.226 176.573,268.893 178,282.5C 180.013,289.181 184.18,294.014 190.5,297C 227.772,298.481 265.105,298.981 302.5,298.5C 285.672,299.332 268.672,299.832 251.5,300C 250.944,300.383 250.611,300.883 250.5,301.5C 209.165,301.667 167.832,301.5 126.5,301C 129.5,298 132.5,295 135.5,292C 135.167,291.667 134.833,291.333 134.5,291C 140.736,282.758 147.736,275.091 155.5,268C 155.167,267.667 154.833,267.333 154.5,267C 156.833,264.667 159.167,262.333 161.5,260C 161.167,259.667 160.833,259.333 160.5,259C 166.73,253.303 172.064,247.469 176.5,241.5 Z"/></g>
<g><path style="opacity:1" fill="#302f2f" d="M 224.5,262.5 C 220.697,264.75 217.03,267.916 213.5,272C 213.833,272.333 214.167,272.667 214.5,273C 209.759,279.048 204.759,284.882 199.5,290.5C 194.123,289.728 189.956,287.061 187,282.5C 185.639,276.593 185.139,270.593 185.5,264.5C 187.722,264.822 189.556,264.155 191,262.5C 193.094,255.947 195.261,249.447 197.5,243C 204.022,244.146 210.355,243.312 216.5,240.5C 217.086,240.709 217.586,241.043 218,241.5C 219.712,247.763 221.212,254.096 222.5,260.5C 222.747,261.713 223.414,262.38 224.5,262.5 Z"/></g>
<g><path style="opacity:1" fill="#1c1b1b" d="M 312.5,252.5 C 313.493,260.65 313.826,268.983 313.5,277.5C 312.421,284.413 308.421,288.58 301.5,290C 288.171,290.5 274.837,290.667 261.5,290.5C 261.389,289.883 261.056,289.383 260.5,289C 264.73,282.763 269.73,277.096 275.5,272C 275.167,271.667 274.833,271.333 274.5,271C 277.135,269.039 278.969,266.539 280,263.5C 281.129,261.859 282.629,260.859 284.5,260.5C 296.206,265.974 305.539,263.307 312.5,252.5 Z"/></g>
<g><path style="opacity:1" fill="#8e6b2b" d="M 261.5,258.5 C 262.043,258.56 262.376,258.893 262.5,259.5C 253.675,260.821 245.009,260.821 236.5,259.5C 245.017,259.826 253.35,259.493 261.5,258.5 Z"/></g>
<g><path style="opacity:1" fill="#b5b5b5" d="M 222.5,313.5 C 240.5,313.5 258.5,313.5 276.5,313.5C 276.5,317.167 276.5,320.833 276.5,324.5C 258.5,324.5 240.5,324.5 222.5,324.5C 222.5,320.833 222.5,317.167 222.5,313.5 Z"/></g>
<g><path style="opacity:1" fill="#cacaca" d="M 101.5,312.5 C 142.003,312.168 182.337,312.501 222.5,313.5C 222.5,317.167 222.5,320.833 222.5,324.5C 240.5,324.5 258.5,324.5 276.5,324.5C 276.833,324.5 277.167,324.5 277.5,324.5C 277.5,339.833 277.5,355.167 277.5,370.5C 286.017,370.174 294.35,370.507 302.5,371.5C 302.167,371.5 301.833,371.5 301.5,371.5C 266.833,371.5 232.167,371.5 197.5,371.5C 205.316,370.508 213.316,370.174 221.5,370.5C 221.5,351.5 221.5,332.5 221.5,313.5C 181.33,313.832 141.33,313.499 101.5,312.5 Z"/></g>
<g><path style="opacity:1" fill="#858585" d="M 197.5,371.5 C 197.5,372.833 197.5,374.167 197.5,375.5C 197.5,376.833 197.5,378.167 197.5,379.5C 197.5,380.5 197.5,381.5 197.5,382.5C 232.167,382.5 266.833,382.5 301.5,382.5C 301.5,381.5 301.5,380.5 301.5,379.5C 301.5,378.167 301.5,376.833 301.5,375.5C 301.5,374.167 301.5,372.833 301.5,371.5C 301.833,371.5 302.167,371.5 302.5,371.5C 302.5,375.833 302.5,380.167 302.5,384.5C 267.167,384.5 231.833,384.5 196.5,384.5C 196.182,379.968 196.515,375.634 197.5,371.5 Z"/></g>
<g><path style="opacity:1" fill="#747474" d="M 197.5,379.5 C 232.167,379.5 266.833,379.5 301.5,379.5C 301.5,380.5 301.5,381.5 301.5,382.5C 266.833,382.5 232.167,382.5 197.5,382.5C 197.5,381.5 197.5,380.5 197.5,379.5 Z"/></g>
<g><path style="opacity:1" fill="#636363" d="M 197.5,375.5 C 232.167,375.5 266.833,375.5 301.5,375.5C 301.5,376.833 301.5,378.167 301.5,379.5C 266.833,379.5 232.167,379.5 197.5,379.5C 197.5,378.167 197.5,376.833 197.5,375.5 Z"/></g>
<g><path style="opacity:1" fill="#4b4b4b" d="M 197.5,371.5 C 232.167,371.5 266.833,371.5 301.5,371.5C 301.5,372.833 301.5,374.167 301.5,375.5C 266.833,375.5 232.167,375.5 197.5,375.5C 197.5,374.167 197.5,372.833 197.5,371.5 Z"/></g>
</svg>
